#!OML:ASF E:\Style4\Style4.ASF
:FULLY-SPECIFIED
:DEGREES
2723
root -0.212276 17.7635 -1.7426 6.61561 9.319 1.95956
lowerback 12.8699 1.97414 -5.71692
upperback 7.701 2.02277 -6.25413
thorax 0.958942 0.99227 -3.5806
lowerneck -2.0642 0.330676 -3.78279
upperneck 8.99547 -0.541124 14.6607
head 3.02181 0.167575 5.08658
rclavicle 9.54166e-015 6.04305e-014
rhumerus 46.9524 -16.4123 -15.5785
rradius 66.4235
rwrist -31.7368
rhand 36.2114 -0.630011
rfingers 7.12502
rthumb 59.1874 -15.236
lclavicle 9.54166e-015 6.04305e-014
lhumerus 42.4716 -21.0202 51.2221
lradius 64.4052
lwrist 3.52884
lhand 31.0324 37.0313
lfingers 7.12502
lthumb 54.6326 55.4324
rfemur -24.5699 -7.86574 18.2159
rtibia 36.4147
rfoot -17.1248 -20.3371
rtoes -9.1976
lfemur -25.3199 0.24076 -19.8757
ltibia 31.519
lfoot -12.5527 1.80681
ltoes -13.479
2724
root -0.251525 17.7538 -1.7523 6.65073 9.75512 1.97578
lowerback 12.9616 2.12446 -5.40176
upperback 7.71759 2.249 -6.24465
thorax 0.941689 1.11763 -3.77775
lowerneck -2.09341 -0.0174522 -3.95011
upperneck 9.01442 -1.01317 14.7369
head 3.07848 -0.0651346 5.12544
rclavicle 7.15625e-015 -1.43125e-014
rhumerus 48.3452 -16.092 -15.8125
rradius 64.8162
rwrist -30.8424
rhand 36.2227 -0.591847
rfingers 7.12502
rthumb 59.1971 -15.1883
lclavicle 7.15625e-015 -1.43125e-014
lhumerus 42.6326 -21.4053 51.1628
lradius 64.8402
lwrist 3.63591
lhand 30.6709 37.2633
lfingers 7.12502
lthumb 54.3091 55.8902
rfemur -24.7966 -8.06082 18.3646
rtibia 36.7875
rfoot -17.3797 -20.4823
rtoes -8.74989
lfemur -25.594 0.135551 -19.7678
ltibia 31.6997
lfoot -12.3704 1.5845
ltoes -13.4361
2725
root -0.288787 17.7433 -1.75889 6.68338 10.2198 2.12898
lowerback 12.9499 2.30782 -5.11379
upperback 7.82472 2.53553 -6.28872
thorax 1.08361 1.2731 -4.01874
lowerneck -2.08751 -0.417881 -4.05998
upperneck 8.87816 -1.53772 14.7642
head 3.0896 -0.330809 5.1343
rclavicle 3.57812e-014 -9.54166e-015
rhumerus 49.5395 -15.8112 -16.0365
rradius 63.257
rwrist -29.8706
rhand 36.0788 -0.520108
rfingers 7.12502
rthumb 59.073 -15.2381
lclavicle 3.57812e-014 -9.54166e-015
lhumerus 42.9151 -21.8231 51.0671
lradius 65.3011
lwrist 3.7443
lhand 31.0138 37.237
lfingers 7.12502
lthumb 54.616 55.6498
rfemur -25.0056 -8.35124 18.3451
rtibia 37.2047
rfoot -17.5757 -20.6298
rtoes -8.34228
lfemur -25.8117 -0.0521302 -19.8144
ltibia 31.8599
lfoot -12.2046 1.38438
ltoes -13.4959
2726
root -0.327502 17.7329 -1.76624 6.69764 10.6993 2.28832
lowerback 12.9557 2.48085 -4.86873
upperback 7.9612 2.80502 -6.31315
thorax 1.24768 1.41891 -4.21256
lowerneck -2.04394 -0.833827 -4.17695
upperneck 8.63063 -2.07106 14.7946
head 3.06325 -0.606848 5.14313
rclavicle 9.54166e-015 7.95139e-015
rhumerus 50.716 -15.5156 -16.2535
rradius 61.7121
rwrist -29.0027
rhand 36.0002 -0.348551
rfingers 7.12502
rthumb 59.0051 -15.1325
lclavicle 9.54166e-015 7.95139e-015
lhumerus 43.2586 -22.2202 50.89
lradius 65.6905
lwrist 3.84065
lhand 30.7053 36.7271
lfingers 7.12502
lthumb 54.3399 55.3327
rfemur -25.2067 -8.70452 18.3366
rtibia 37.6558
rfoot -17.7931 -20.7582
rtoes -8.21669
lfemur -26.002 -0.247288 -19.8709
ltibia 32.0079
lfoot -12.106 1.23566
ltoes -14.1224
2727
root -0.366153 17.7202 -1.77545 6.70015 11.1466 2.48028
lowerback 13.0593 2.62929 -4.72722
upperback 8.05311 3.01768 -6.31141
thorax 1.30582 1.53279 -4.31906
lowerneck -2.02318 -1.21668 -4.35814
upperneck 8.48398 -2.56302 14.7571
head 3.06708 -0.862472 5.14375
rclavicle -3.49861e-014 -9.54166e-015
rhumerus 51.9999 -15.0643 -16.6156
rradius 60.1643
rwrist -28.0239
rhand 35.9631 -0.227489
rfingers 7.12502
rthumb 58.973 -15.0425
lclavicle -3.49861e-014 -9.54166e-015
lhumerus 43.4777 -22.5564 50.7503
lradius 66.0588
lwrist 4.10693
lhand 29.6541 36.1668
lfingers 7.12502
lthumb 53.3957 55.4053
rfemur -25.4215 -9.03798 18.2822
rtibia 38.1333
rfoot -17.9853 -20.8729
rtoes -8.34897
lfemur -26.1829 -0.472227 -19.9528
ltibia 32.1874
lfoot -12.0458 1.09532
ltoes -14.3682
2728
root -0.406775 17.7038 -1.78329 6.67621 11.5317 2.64538
lowerback 13.2324 2.81351 -4.59334
upperback 8.10116 3.26604 -6.29764
thorax 1.2818 1.66433 -4.41775
lowerneck -2.11756 -1.57134 -4.58994
upperneck 8.50061 -3.03741 14.7882
head 3.13917 -1.09769 5.17566
rclavicle -4.77083e-015 -7.95139e-015
rhumerus 53.0896 -14.502 -17.0111
rradius 58.7885
rwrist -26.9641
rhand 36.1484 0.0347263
rfingers 7.12502
rthumb 59.1331 -14.6246
lclavicle -4.77083e-015 -7.95139e-015
lhumerus 43.5584 -22.9369 50.7689
lradius 66.4349
lwrist 4.24984
lhand 29.9098 35.8625
lfingers 7.12502
lthumb 53.6258 54.9504
rfemur -25.6407 -9.26689 18.2492
rtibia 38.6282
rfoot -18.1928 -21.0002
rtoes -8.25658
lfemur -26.3596 -0.593084 -20.0047
ltibia 32.3988
lfoot -12.0459 0.948776
ltoes -14.7138
2729
root -0.447115 17.6856 -1.78949 6.66141 11.9379 2.71345
lowerback 13.3535 2.99715 -4.38427
upperback 8.14621 3.52639 -6.22978
thorax 1.28398 1.80283 -4.50014
lowerneck -2.24517 -1.95503 -4.78889
upperneck 8.58397 -3.55568 14.7666
head 3.24133 -1.35161 5.18253
rclavicle -4.85035e-014 3.02153e-014
rhumerus 54.0801 -13.8698 -17.3147
rradius 57.4354
rwrist -25.9318
rhand 36.1251 0.679256
rfingers 7.12502
rthumb 59.113 -13.9997
lclavicle -4.85035e-014 3.02153e-014
lhumerus 43.6367 -23.324 50.7969
lradius 66.8053
lwrist 4.38175
lhand 30.5611 35.8317
lfingers 7.12502
lthumb 54.2107 54.5263
rfemur -25.8819 -9.49827 18.3287
rtibia 39.1225
rfoot -18.4396 -21.1342
rtoes -7.81789
lfemur -26.586 -0.707246 -19.9453
ltibia 32.6444
lfoot -12.0904 0.719961
ltoes -14.6179
2730
root -0.485538 17.6684 -1.79458 6.65579 12.3337 2.86264
lowerback 13.3899 3.17816 -4.31186
upperback 8.23273 3.77961 -6.09764
thorax 1.36372 1.93042 -4.43065
lowerneck -2.0352 -2.33199 -5.31432
upperneck 8.43025 -4.03303 14.8347
head 3.21934 -1.61467 5.27513
rclavicle 2.54444e-014 -1.27222e-014
rhumerus 55.216 -13.1851 -17.5796
rradius 55.9578
rwrist -24.9023
rhand 35.4151 0.806796
rfingers 7.12502
rthumb 58.4982 -14.459
lclavicle 2.54444e-014 -1.27222e-014
lhumerus 43.6416 -23.6276 50.8494
lradius 67.2191
lwrist 4.63254
lhand 30.5098 35.9342
lfingers 7.12502
lthumb 54.1647 54.6603
rfemur -26.1167 -9.79649 18.3111
rtibia 39.6179
rfoot -18.4963 -21.3371
rtoes -8.23223
lfemur -26.7985 -0.873185 -19.9811
ltibia 32.9231
lfoot -12.0188 0.424389
ltoes -13.6652
2731
root -0.52551 17.648 -1.80132 6.69438 12.7403 3.08608
lowerback 13.4178 3.34994 -4.31162
upperback 8.35232 4.01659 -5.98458
thorax 1.47948 2.04786 -4.33766
lowerneck -1.92206 -2.72489 -5.93171
upperneck 8.26637 -4.53323 14.9646
head 3.21982 -1.8861 5.401
rclavicle -3.33958e-014 7.4743e-014
rhumerus 56.2922 -12.5122 -18.0347
rradius 54.4795
rwrist -23.6209
rhand 34.8428 0.804928
rfingers 7.12502
rthumb 58.0002 -14.9163
lclavicle -3.33958e-014 7.4743e-014
lhumerus 43.6841 -23.8349 50.9607
lradius 67.5791
lwrist 4.76388
lhand 30.4538 36.0689
lfingers 7.12502
lthumb 54.1145 54.8292
rfemur -26.4013 -10.065 18.2162
rtibia 40.1229
rfoot -18.56 -21.607
rtoes -9.5246
lfemur -27.0568 -1.08263 -20.0938
ltibia 33.223
lfoot -12.0052 0.194784
ltoes -12.6496
2732
root -0.566351 17.6263 -1.80915 6.70208 13.1366 3.26123
lowerback 13.533 3.54622 -4.17144
upperback 8.46646 4.29344 -5.9374
thorax 1.55957 2.19359 -4.40368
lowerneck -1.97976 -3.18883 -6.17705
upperneck 8.19029 -5.13763 14.8898
head 3.2782 -2.19452 5.39093
rclavicle 1.03368e-014 -2.14687e-014
rhumerus 57.1541 -11.8516 -18.6995
rradius 53.0331
rwrist -22.2622
rhand 34.685 1.09298
rfingers 7.12502
rthumb 57.8624 -14.7512
lclavicle 1.03368e-014 -2.14687e-014
lhumerus 43.9226 -24.1402 50.9659
lradius 67.8106
lwrist 4.80359
lhand 30.3828 36.3862
lfingers 7.12502
lthumb 54.0508 55.1898
rfemur -26.6634 -10.2882 18.1671
rtibia 40.6641
rfoot -19.1189 -21.6712
rtoes -8.99136
lfemur -27.3038 -1.2599 -20.1452
ltibia 33.5264
lfoot -12.1096 0.0553542
ltoes -12.6331
2733
root -0.605969 17.6052 -1.81711 6.683 13.5318 3.33468
lowerback 13.6431 3.78131 -3.86118
upperback 8.56894 4.63997 -5.90264
thorax 1.64867 2.38215 -4.58625
lowerneck -1.96155 -3.69457 -6.23559
upperneck 8.1308 -5.80324 14.7337
head 3.32917 -2.53238 5.31987
rclavicle -4.37326e-015 1.98785e-014
rhumerus 57.784 -11.1888 -19.2738
rradius 51.5541
rwrist -21.0812
rhand 34.4648 1.23867
rfingers 7.12502
rthumb 57.67 -14.7752
lclavicle -4.37326e-015 1.98785e-014
lhumerus 44.3331 -24.642 50.7992
lradius 68.0239
lwrist 5.01675
lhand 29.8667 36.9219
lfingers 7.12502
lthumb 53.587 56.0353
rfemur -26.9457 -10.6033 18.2468
rtibia 41.2355
rfoot -19.4646 -21.7149
rtoes -8.22926
lfemur -27.5632 -1.39944 -20.1026
ltibia 33.8423
lfoot -12.1203 -0.0525172
ltoes -13.333
